<svg width="50" height="53" viewBox="0 0 50 53" fill="none" xmlns="http://www.w3.org/2000/svg">
<path d="M24.7863 28.3754C24.8472 28.3754 24.9081 28.3754 24.9811 28.3754C25.0054 28.3754 25.0298 28.3754 25.0541 28.3754C25.0907 28.3754 25.1393 28.3754 25.1759 28.3754C28.7425 28.3211 31.6274 27.2029 33.7576 25.0641C38.4441 20.3523 37.665 12.2748 37.5798 11.504C37.2755 5.71736 34.208 2.94889 31.6761 1.65693C29.7893 0.690681 27.5861 0.169556 25.1272 0.126129H25.042C25.0298 0.126129 25.0054 0.126129 24.9933 0.126129H24.9202C23.5691 0.126129 20.9154 0.321551 18.3713 1.61351C15.8151 2.90546 12.6989 5.67393 12.3945 11.504C12.3093 12.2748 11.5303 20.3523 16.2168 25.0641C18.3348 27.2029 21.2197 28.3211 24.7863 28.3754ZM15.6446 11.7754C15.6446 11.7429 15.6568 11.7103 15.6568 11.6886C16.0585 3.90428 22.2544 3.06831 24.9081 3.06831H24.9568C24.9811 3.06831 25.0176 3.06831 25.0541 3.06831C28.3408 3.13345 33.928 4.3277 34.3054 11.6886C34.3054 11.7212 34.3054 11.7537 34.3175 11.7754C34.3297 11.8514 35.1818 19.234 31.3109 23.1208C29.7771 24.6624 27.7321 25.4224 25.042 25.4441C25.0176 25.4441 25.0054 25.4441 24.9811 25.4441C24.9568 25.4441 24.9446 25.4441 24.9202 25.4441C22.2422 25.4224 20.1851 24.6624 18.6635 23.1208C14.8047 19.2557 15.6325 11.8406 15.6446 11.7754Z" fill="#727272"/>
<path d="M49.9966 41.8765C49.9966 41.8656 49.9966 41.8548 49.9966 41.8439C49.9966 41.7571 49.9844 41.6702 49.9844 41.5725C49.9114 39.4229 49.7531 34.3962 44.4702 32.7894C44.4337 32.7785 44.385 32.7677 44.3485 32.7568C38.8586 31.5083 34.2938 28.6855 34.2451 28.6529C33.5026 28.1861 32.4801 28.349 31.9566 29.0112C31.4332 29.6735 31.6158 30.5854 32.3583 31.0523C32.5653 31.1826 37.41 34.1899 43.472 35.5796C46.3083 36.4807 46.6248 39.184 46.71 41.6593C46.71 41.7571 46.71 41.8439 46.7221 41.9308C46.7343 42.9079 46.6613 44.417 46.4665 45.2855C44.4945 46.2843 36.7649 49.7368 25.006 49.7368C13.2959 49.7368 5.51755 46.2735 3.5334 45.2746C3.33863 44.4061 3.25342 42.897 3.27777 41.9199C3.27777 41.8331 3.28994 41.7462 3.28994 41.6485C3.37515 39.1731 3.69164 36.4698 6.52788 35.5687C12.5899 34.179 17.4346 31.1609 17.6416 31.0414C18.3841 30.5746 18.5667 29.6626 18.0433 29.0004C17.5198 28.3381 16.4973 28.1752 15.7548 28.6421C15.7061 28.6747 11.1657 31.4974 5.65145 32.7459C5.60276 32.7568 5.56624 32.7677 5.52972 32.7785C0.246767 34.3962 0.0885222 39.4229 0.015486 41.5616C0.015486 41.6593 0.0154857 41.7462 0.00331298 41.8331C0.00331298 41.8439 0.00331298 41.8548 0.00331298 41.8656C-0.00885972 42.4302 -0.0210322 45.3289 0.624121 46.7837C0.745848 47.066 0.964957 47.3049 1.2571 47.4677C1.62228 47.6849 10.3745 52.6572 25.0182 52.6572C39.662 52.6572 48.4141 47.674 48.7793 47.4677C49.0593 47.3049 49.2906 47.066 49.4123 46.7837C50.0209 45.3398 50.0088 42.441 49.9966 41.8765Z" fill="#727272"/>
</svg>
